<svg xmlns="http://www.w3.org/2000/svg" viewBox="0 0 191.232 191.232"><path d="M37.884 191.232c-2.385 0-3.82-.153-4.188-.198a2.987 2.987 0 01-1.726-.807l-.062-.061-14.548-14.547c-5.505-5.504-5.505-14.461 0-19.965l27.606-27.606c2.667-2.667 6.211-4.135 9.982-4.135s7.316 1.469 9.982 4.135l13.635 13.635c4.235-.31 20.305-2.727 38.892-21.313 18.718-18.718 20.65-34.241 20.817-38.311L124.599 68.38c-5.505-5.504-5.505-14.46 0-19.965l27.606-27.606c5.504-5.505 14.461-5.505 19.965 0l14.547 14.547.056.057.004.004c.459.481.727 1.077.805 1.692.318 2.358 5.36 46.423-50.8 102.583-47.251 47.251-86.295 51.54-98.898 51.54zm40.752-43.535l-37.348 37.348c14.354-.984 49.642-7.987 91.251-49.596 41.626-41.627 48.304-76.612 49.137-90.792l-37.398 37.398c-.16 5.014-2.288 22.267-22.577 42.556-20.379 20.38-38.062 22.821-43.065 23.086zm-23.687-17.781a8.09 8.09 0 00-5.74 2.374l-27.606 27.606a8.065 8.065 0 00-2.377 5.74c0 2.168.844 4.207 2.377 5.741l12.435 12.435 39.086-39.086-12.435-12.436a8.09 8.09 0 00-5.74-2.374zM162.188 22.673a8.065 8.065 0 00-5.74 2.377l-27.606 27.606c-1.533 1.534-2.377 3.572-2.377 5.74s.844 4.207 2.377 5.74l12.435 12.435 39.087-39.086-12.435-12.435a8.073 8.073 0 00-5.741-2.377zM50.667 96.167a3 3 0 01-3-3c0-26.966 21.938-48.904 48.904-48.904a3 3 0 110 6c-23.657 0-42.904 19.247-42.904 42.904a3 3 0 01-3 3zm-22.401 0a3 3 0 01-3-3c0-39.317 31.987-71.305 71.305-71.305a3 3 0 110 6c-36.009 0-65.305 29.295-65.305 65.305a3 3 0 01-3 3zm-21.863 0a3 3 0 01-3-3C3.403 41.795 45.198 0 96.571 0a3 3 0 110 6C48.506 6 9.403 45.103 9.403 93.167a3 3 0 01-3 3z"/></svg>